<?xml version="1.0" encoding="UTF-8"?>
<svg id="Layer_1" data-name="Layer 1" xmlns="http://www.w3.org/2000/svg" viewBox="0 0 640 640">
  <defs>
    <style>
      .cls-1 {
        fill: #7dd1a5;
      }

      .cls-2 {
        fill: #f5f9f8;
      }

      .cls-3 {
        fill: #b7e4cc;
      }

      .cls-4 {
        fill: #fbfcfc;
      }

      .cls-5 {
        fill: #eff3f2;
      }

      .cls-6 {
        fill: #7cd0a4;
      }

      .cls-7 {
        fill: #cfd0d1;
      }

      .cls-8 {
        fill: #34c57c;
      }

      .cls-9 {
        fill: #8ed8b2;
      }

      .cls-10 {
        fill: #cdd0d1;
      }

      .cls-11 {
        fill: #d4efe0;
      }

      .cls-12 {
        fill: #fafafa;
      }

      .cls-13 {
        fill: #9cdcba;
      }

      .cls-14 {
        fill: #ced1d2;
      }

      .cls-15 {
        fill: #f0f5f3;
      }

      .cls-16 {
        fill: #f2f6f5;
      }

      .cls-17 {
        fill: #eef2f1;
      }

      .cls-18 {
        fill: #1da46c;
      }

      .cls-19 {
        fill: #f8faf9;
      }

      .cls-20 {
        fill: #fcfcfc;
      }

      .cls-21 {
        fill: #49c289;
      }

      .cls-22 {
        fill: #d3efe0;
      }

      .cls-23 {
        fill: #d1eddf;
      }

      .cls-24 {
        fill: #f0f4f3;
      }

      .cls-25 {
        fill: #ecf0ef;
      }

      .cls-26 {
        fill: #86d4ac;
      }

      .cls-27 {
        fill: #fcfdfd;
      }
    </style>
  </defs>
  <path class="cls-16" d="M0,0h640v640H0V0ZM196.17,466.61c70.21,59.26,172.56,60.48,244.16,2.91,5.98-4.81,11.68-9.98,17.04-15.47,1.29-1.32,2.56-2.66,3.82-4.02,53.15-57.66,65.89-141.85,32.18-212.65-33.71-70.81-107.09-114-185.35-109.1-78.27,4.9-145.69,56.9-170.3,131.36s-1.48,156.4,58.45,206.98Z"/>
  <g>
    <path class="cls-10" d="M461.19,450.02l-1.99.03,1.82-6.89-5.08-.07,15.1-18.94c1.09,1.65,4.56,3.5,5.94,2.41.75-.59,1.8-4.54.91-4.88l-4.03-1.54c41.24-65.4,39.66-149.3-8.13-210.45-3.8-4.86-17.16-23.53-23.81-24.74-15.29-17.98-39.98-30.06-62.88-38.11l-8.32-2.93c-79.92-28.12-164.71,10.63-209.74,84.01-15.51,25.27-27.94,79.25-23.78,106.89.09.59.4,1.91.5,2.18,2.75,37.94,16.7,75.05,42.86,102.17-1.08.67-3.49,5.23-2.27,6.46s4.17,3.15,5.91,4.16c1.22.7,3.34-2.56,3.03-3.71.4.41,1.41,1.06,1.94,1.23,2.16,2.59,4.49,5.27,6.84,7.64.74.75,2.11,2.09,2.9,2.75l-2.74,1.05c-.55.21-.11,2.27-.04,2.89l.02,4.95c-59.92-50.58-83.06-132.53-58.45-206.98s92.04-126.46,170.3-131.36c78.27-4.9,151.64,38.29,185.35,109.1,33.71,70.81,20.97,154.99-32.18,212.65Z"/>
    <path class="cls-14" d="M198.93,457.71c49.82,42.19,183.29,73.51,240.04,2.09,2.34,1.03,2.35,4.1,1.3,6.43l-.93,2.08c-.11.25.26.44,1,1.2-71.6,57.57-173.95,56.35-244.16-2.91l-.02-4.95c-.07-.62-.51-2.68.04-2.89l2.74-1.05Z"/>
    <path class="cls-10" d="M457.37,454.04c-5.37,5.49-11.06,10.66-17.04,15.47-.74-.76-1.11-.96-1-1.2l.93-2.08c1.05-2.34,1.04-5.41-1.3-6.43,3.79-4.77,8.85-9.02,13.62-12.78.22,2.85,1.88,4.76,4.79,7.02Z"/>
    <path class="cls-14" d="M461.19,450.02c-1.25,1.36-2.53,2.7-3.82,4.02-2.91-2.26-4.57-4.17-4.79-7.02l3.36-3.93,5.08.07-1.82,6.89,1.99-.03Z"/>
    <path class="cls-27" d="M441.92,184.96l-2.72,1.38c-3.75-2.22-6.89-5.48-10.22-8.22-1.2-4.4-5.46-7.15-9.98-7.13l-.88-1.03c.03-3.75-12.56-5.02-13.97-10.49l-8.53-1.81c-3.1-1.88-6.09-3.77-9.35-4.77l-22.92-7.05c-6.82-2.1-14.58-1.5-21.74-2.5-1.98-.28-6.64-2.14-8.19-.79l-6.86,5.98c-6,5.23-11.69,9.29-16.26,15.86-2.71,3.89-10.86,6.19-15.62,16.65l32.26-.16c4.66-.02,27.22,4.13,32.78,6.43s14.93,6.09,20.13,7.26c.83.19,2.32.85,3.14,1.24,0,.48,0,2.12.58,2.1l2.52-.06c5.17,1.75,13.01,7.78,16.85,11.1l.12,4.25-1.93.91c-3.03-2.59-6.31-5.15-9.46-7.12-66.17-41.17-148.52-18.97-187.85,46.14l-4.71,1.74,2.93,1.21c-6,13.28-11.21,26.64-14.04,40.98-1.61-.23-3.14-1.82-3.73-3.4l-.85-2.26c-.15-.4-1.17.27-1.44.48-.28.05-.62.11-.84.1-2.77-.21-7.24,3.41-7.78,6.87l-1.61,1.23c-1.29.27-2.28,1.74-2.77,2.97-.28.69-1.24,1.67-1.85,2.15-3.2.67-5.81,3.8-7.17,6.82l-.9.94c-1.45.33-2.75,1.54-3.19,2.98-10.86,4.95-5.37,2.46-14.69,11.35-.35,8.84.43,17.26,2.21,25.89l1.82,8.85,3.43,14.73c.11.47,2.51,1.69,2.23,1.41.15.99.79,2.86,1.08,3.82-2.02,2.05.13,6.58,2.87,7.07l2.11,5.01-.88,1.61,5.34,10c1.26,2.36,1.82,4.44,4.43,5.05,1.46,2.14,3.36,4.36,5.14,6.18.43,1.3,1.76,3.68,2.05,5.01l1.99,9.18,4.78-.39c1.11,1.44,3.45,3.57,4.12,5.27,1.1,2.81,3.03,5.34,5.86,6.78l1.35.23c23.83,26.02,55.96,42.99,89.94,51.01,111.93,26.42,218.17-63.98,217.75-171.84l-.02-5.34v-1.65c0-.63.11-1.8-.03-2.38-.19-.79-.42-2.22-.69-2.95-.51-35.5-15.38-68.59-35.02-97.82.72-.91,2.09-2.24,2.68-2.34,47.79,61.15,49.37,145.05,8.13,210.45-.67,1.06-2.04,3.02-2.82,4.01l-15.1,18.94-3.36,3.93c-4.77,3.76-9.83,8.01-13.62,12.78-56.74,71.41-190.22,40.09-240.04-2.09-.78-.66-2.15-2-2.9-2.75-.81-3.15-4.12-7.13-6.84-7.64-.53-.17-1.54-.82-1.94-1.23l-6.67-6.91c-26.16-27.12-40.11-64.23-42.86-102.17l1.09-.81c.27-.2.05-1.19-.28-1.23l-1.31-.14c-4.16-27.64,8.27-81.62,23.78-106.89,45.03-73.38,129.82-112.13,209.74-84.01l8.32,2.93c22.89,8.05,47.58,20.13,62.88,38.11Z"/>
    <path class="cls-4" d="M465.73,209.7c-.59.1-1.97,1.42-2.68,2.34-2.29-2.52-6.19-5.41-8.2-8.18-7.5-10.34-8.14-8.69-15.65-17.52l2.72-1.38c6.65,1.21,20.01,19.88,23.81,24.74Z"/>
    <path class="cls-14" d="M187.25,446.09c.31,1.15-1.81,4.41-3.03,3.71-1.75-1.01-4.7-2.92-5.91-4.16s1.19-5.79,2.27-6.46l6.67,6.91Z"/>
    <path class="cls-14" d="M471.04,424.16c.78-.98,2.15-2.94,2.82-4.01l4.03,1.54c.89.34-.16,4.28-.91,4.88-1.38,1.09-4.85-.76-5.94-2.41Z"/>
    <path class="cls-4" d="M196.03,454.96c-2.35-2.38-4.68-5.06-6.84-7.64,2.72.52,6.03,4.49,6.84,7.64Z"/>
    <path class="cls-4" d="M137.72,337c-.1-.27-.41-1.59-.5-2.18l1.31.14c.34.04.56,1.02.28,1.23l-1.09.81Z"/>
    <path class="cls-2" d="M418.13,169.96l.88,1.03c2.57,3.02,7.01,4.69,9.98,7.13,3.32,2.74,6.46,6,10.22,8.22,7.51,8.83,8.15,7.18,15.65,17.52-5.74,3.51-10.3,8.98-14.91,14.02-8.4-6.66-20.72-6.28-27.82,2.1-1.21,1.43-4.85,3.5-5.79,4.94-1.55-5-4.53-2.11-9.51-5.81,1.68-1.46,3.22-3.16,4.32-4.99l1.93-.91c.74-.35,2.51-1.98,1.89-2.52l-2.01-1.74c-3.84-3.32-11.68-9.35-16.85-11.1-.77-.72-2.03-1.54-3.09-2.04-.82-.39-2.32-1.05-3.14-1.24-.4-3.11-2.86-3.55-5.8-4.54l-15.06-5.11-11.23-3.75c.51-2.68,3.05-5.48,5.63-7.62,3.06-2.54,5.44-5.27,8.17-8.02l7.45-7.49c1.56-1.56,5.75-3.79,7.79-5.09,23.57,5.66,10.07,3.73,25.03,10.08l9.34,3.97,6.94,2.97Z"/>
    <path class="cls-4" d="M418.13,169.96l-6.94-2.97-9.34-3.97c-14.96-6.35-1.45-4.43-25.03-10.08-2.04,1.3-6.23,3.52-7.79,5.09l-7.45,7.49c-2.73,2.75-5.12,5.48-8.17,8.02-2.58,2.15-5.12,4.94-5.63,7.62l11.23,3.75,15.06,5.11c2.94,1,5.4,1.44,5.8,4.54-5.21-1.17-14.85-5.08-20.13-7.26-5.56-2.29-28.12-6.45-32.78-6.43l-32.26.16c4.76-10.47,12.92-12.76,15.62-16.65,4.57-6.57,10.26-10.63,16.26-15.86l6.86-5.98c1.55-1.35,6.21.51,8.19.79,7.16,1,14.91.4,21.74,2.5l22.92,7.05c3.26,1,6.25,2.89,9.35,4.77l8.53,1.81c1.41,5.48,14,6.74,13.97,10.49Z"/>
    <path class="cls-2" d="M192.85,378.67c.89.83,1.71,3.06,2.08,4.29-.63.38-1.15,3.33-.18,3.71l3.26,1.27c7.04,9.29,12.61,20.83,21.13,28.89-2.47.39-4.53,1.8-6.52,3.72l-9.83,9.44c-4.25,4.08-8.11,8.65-11.67,13.02l-1.35-.23c-1.27-2.46-3.64-4.76-5.86-6.78-.66-1.69-3.01-3.83-4.12-5.27l-6.77-8.79c-.29-1.33-1.62-3.71-2.05-5.01,1.85-2.49-.25-4.53-2.19-6.77s-3.05-5.33-5.98-5.02l-1.64-4.24c2.1-1.72,4.35-3.89,6.57-6.09l6.01-5.94,10.1-9.78c1.26-1.22,3.25-5.71,4.43-4.66l4.58,4.25Z"/>
    <path class="cls-4" d="M180.99,302.96c-.39,4.68-1.5,9.98-1.5,14.99,0,3.63,1.49,7.57,1.27,10.96l-3.35-2.03-7.47,6.94-13.03,12.11c-1.57,1.46-3.68,3.9-3.63,5.55.07,2.17,1.23,4.56,2.43,7.27.17,1.93-4.25,3.9-7,5.5l2.16,13.93c.28.28-2.12-.94-2.23-1.41l-3.43-14.73-1.82-8.85c-1.78-8.62-2.56-17.05-2.21-25.89,9.32-8.89,3.83-6.4,14.69-11.35,1.6-.73,2.82-1.34,3.19-2.98l.9-.94c3.12-1.24,5.86-3.74,7.17-6.82.61-.48,1.57-1.46,1.85-2.15,1.31-.22,2.44-1.55,2.77-2.97l1.61-1.23,5.54-2.93.26,3.91c.06.9,1.18,2.58,1.83,3.12Z"/>
    <path class="cls-12" d="M180.76,328.9c-.11,1.63.17,4.38.24,6.1l-1.12,1.73c-.38.59,1.59,1.54,1.95,1.42-.06.46,0,1.35.03,1.86l-1.08,2.54c-.27.65,1.6,1.76,2.03,1.65l.11,1.73c-.27.2-1.03.92-.78,1.27.18.25.74.71.93.88l6.84,22.96-4.03-3.98c-.38-.37-.98-2.22-1.44-1.99l-2.95,1.47c-.56-4.69,3.84-3.41,1.48-8.05s-19.04,9.39-21.47,11.95l-6.04,6.36c-1.22,1.28-1.63,5.64-.06,6.49,3.6,1.96,7.24,4.04,10.16,5.85-3.41,4.02-4.36,5.44-5.78,8.65l-2.87-3.68-2.11-5.01c-.8-2.36-1.75-4.75-2.87-7.07-.29-.96-.93-2.84-1.08-3.82l-2.16-13.93c2.75-1.6,7.18-3.57,7-5.5-1.2-2.72-2.36-5.11-2.43-7.27-.05-1.65,2.06-4.09,3.63-5.55l13.03-12.11,7.47-6.94,3.35,2.03Z"/>
    <path class="cls-20" d="M188,297.08c-.16.82-.58,2.19-.85,3.03l-2.23,1c-.42.19-.51,1.65-.05,1.71l2.21.26-.14,2.76c-.99.16-3.36.86-3.68,1.16l-.9,14.11c-.12,1.84.62,5.52.77,7.73-1.02.1-1.99.29-2.37.06.22-3.39-1.27-7.33-1.27-10.96,0-5,1.11-10.31,1.5-14.99.29-3.48,3.59-7.7.99-11.06.26-.22,1.28-.89,1.44-.48l.85,2.26c.6,1.58,2.13,3.17,3.73,3.4Z"/>
    <path class="cls-19" d="M170.96,416.92c-1.79-1.83-3.69-4.04-5.14-6.18-1.09-1.61-2.33-3.79-3.03-5.61,2.93-.31,3.99,2.74,5.98,5.02s4.04,4.28,2.19,6.77Z"/>
    <path class="cls-20" d="M180.99,302.96c-.65-.54-1.77-2.21-1.83-3.12l-.26-3.91,2.24-3.94c.22.02.57-.05.84-.1,2.6,3.36-.7,7.58-.99,11.06Z"/>
    <polygon class="cls-4" points="179.78 430.72 175 431.11 173.01 421.93 179.78 430.72"/>
    <path class="cls-4" d="M428.99,178.13c-2.97-2.44-7.4-4.12-9.98-7.13,4.52-.02,8.78,2.73,9.98,7.13Z"/>
    <path class="cls-20" d="M181.14,291.99l-2.24,3.94-5.54,2.93c.54-3.46,5.01-7.08,7.78-6.87Z"/>
    <path class="cls-20" d="M167.12,305.22c-1.31,3.08-4.05,5.58-7.17,6.82,1.36-3.03,3.97-6.16,7.17-6.82Z"/>
    <path class="cls-4" d="M159.8,397.77l1.35,3.13,1.64,4.24c.7,1.82,1.94,4,3.03,5.61-2.61-.6-3.17-2.69-4.43-5.05l-5.34-10,.88-1.61,2.87,3.68Z"/>
    <path class="cls-4" d="M154.81,389.08c-2.74-.49-4.9-5.02-2.87-7.07,1.13,2.32,2.07,4.71,2.87,7.07Z"/>
    <polygon class="cls-20" points="203.82 253.14 202.04 256.09 199.11 254.88 203.82 253.14"/>
    <path class="cls-20" d="M159.04,312.98c-.37,1.64-1.59,2.25-3.19,2.98.44-1.44,1.73-2.65,3.19-2.98Z"/>
    <path class="cls-20" d="M171.74,300.09c-.34,1.42-1.46,2.74-2.77,2.97.49-1.23,1.48-2.69,2.77-2.97Z"/>
    <path class="cls-4" d="M386.09,197.85l-2.52.06c-.59.01-.57-1.62-.58-2.1,1.07.5,2.33,1.33,3.09,2.04Z"/>
    <path class="cls-25" d="M498.07,309.86c.27.73.5,2.16.69,2.95l-1.83.64c-.35.12.22,1.55.59,1.59l1.27.15v1.65c-.8-.1-2.07,1.71-2.07,2.67s1.28,2.77,2.09,2.67c.42,107.87-105.82,198.26-217.75,171.84,7.21-13.15,6.47-5.81,16.79-19.25,9.95-12.96,2.2-2.65,4.25-15.79,19.93,2.84,41.31-.16,60.52-6.31,49.25-15.77,83.7-56.54,94.71-105.87,1.94-1.62,3.08-5.52,4.63-7.85l8.62-8.27c2.92-2.8,6.52-6.36,9.84-8.19l8.92-4.92c.93-.51,4.13-.08,4.71-.95,2.39-3.62.84-6.61,4.04-6.74Z"/>
    <path class="cls-17" d="M454.85,203.86c2.01,2.77,5.91,5.66,8.2,8.18,19.64,29.23,34.5,62.32,35.02,97.82-3.2.13-1.65,3.11-4.04,6.74-.57.87-3.78.43-4.71.95l-8.92,4.92c-3.32,1.84-6.92,5.4-9.84,8.19l-8.62,8.27c-1.55,2.34-2.69,6.23-4.63,7.85,7-23.06-.63-63.92-10.25-82.83-.56-1.09-1.05-4.31-2.23-3.98-1.44.4-3.08,1.99-3.82,3.06l-5.22,4.02-4.19-2.46-5.93-1.98c4.29-4.36,7.86-10.53,13.04-14.94,8.67-7.38,9.82-21.65,1.26-28.63l-.04-1.18c4.61-5.04,9.18-10.51,14.91-14.02Z"/>
    <path class="cls-5" d="M219.13,416.82c23.32,22.08,50.89,37.58,82.96,42.14-2.04,13.14,5.71,2.84-4.25,15.79-10.33,13.44-9.58,6.1-16.79,19.25-33.98-8.02-66.1-24.99-89.94-51.01,3.56-4.37,7.42-8.94,11.67-13.02l9.83-9.44c1.99-1.91,4.05-3.32,6.52-3.72Z"/>
    <path class="cls-4" d="M189.76,442.77c-2.83-1.45-4.76-3.98-5.86-6.78,2.22,2.02,4.59,4.33,5.86,6.78Z"/>
    <path class="cls-17" d="M498.78,316.83l.02,5.34c-.82.1-2.09-1.69-2.09-2.67s1.27-2.77,2.07-2.67Z"/>
    <path class="cls-17" d="M498.75,312.81c.14.58.03,1.74.03,2.38l-1.27-.15c-.36-.04-.94-1.47-.59-1.59l1.83-.64Z"/>
    <path class="cls-20" d="M457.32,346.78c-11.01,49.33-45.46,90.1-94.71,105.87-19.21,6.15-40.59,9.15-60.52,6.31-32.07-4.56-59.64-20.07-82.96-42.14-8.51-8.06-14.09-19.6-21.13-28.89-.94-1.24-1.74-3.99-3.08-4.97-.37-1.23-1.19-3.46-2.08-4.29-.38-2.37-1.22-5.97-2.93-7.65l-6.84-22.96c.33-.19.96-.45.8-.69l-.95-1.46-.11-1.73c.16-1.43-.09-3.61-.96-4.19-.02-.5-.09-1.4-.03-1.86l.38-3.03c1.45-.42,3.09-.74,4.64-.95,4.12,35.42,21.88,67.51,49.74,90.01,48.54,39.2,116.84,39.33,165.6,1.07,47.72-37.44,68.15-102.26,41.79-156.14.74-1.85,1.81-3.68,3.08-5.15,9.62,18.91,17.25,59.77,10.25,82.83Z"/>
    <path class="cls-27" d="M186.94,305.83l-.16,3.99-1.69.72c-.32.13-.19,1.13-.09,1.46,2.5,8.64.75,12.65,1.86,22.16-1.55.21-3.19.53-4.64.95l-1.22-.11c-.07-1.72-.34-4.47-.24-6.1.37.22,1.35.04,2.37-.06-.15-2.2-.89-5.88-.77-7.73l.9-14.11c.32-.3,2.69-1,3.68-1.16Z"/>
    <path class="cls-20" d="M447.07,263.96c-1.27,1.47-2.34,3.3-3.08,5.15l-2.97-6.07c.73-1.07,2.37-2.66,3.82-3.06,1.19-.33,1.68,2.89,2.23,3.98Z"/>
    <path class="cls-27" d="M187.15,300.1l-.07,2.97-2.21-.26c-.46-.05-.37-1.52.05-1.71l2.23-1Z"/>
    <path class="cls-20" d="M186.78,309.82l.02,1.63c0,.54-1.18.51-1.8.55-.1-.33-.22-1.33.09-1.46l1.69-.72Z"/>
    <path class="cls-19" d="M189.92,371.02c1.7,1.68,2.55,5.28,2.93,7.65l-4.58-4.25c-1.18-1.05-3.18,3.44-4.43,4.66l-10.1,9.78-6.01,5.94c-2.22,2.2-4.47,4.37-6.57,6.09l-1.35-3.13c1.42-3.21,2.37-4.63,5.78-8.65-2.92-1.81-6.56-3.88-10.16-5.85-1.57-.86-1.16-5.21.06-6.49l6.04-6.36c2.43-2.56,19.12-16.56,21.47-11.95s-2.04,3.36-1.48,8.05l2.95-1.47c.46-.23,1.07,1.62,1.44,1.99l4.03,3.98Z"/>
    <path class="cls-19" d="M198,387.93l-3.26-1.27c-.97-.38-.45-3.33.18-3.71,1.34.98,2.14,3.73,3.08,4.97Z"/>
    <path class="cls-4" d="M182.82,344.19c-.44.11-2.31-1-2.03-1.65l1.08-2.54c.87.57,1.12,2.76.96,4.19Z"/>
    <path class="cls-4" d="M182.22,335.11l-.38,3.03c-.36.12-2.33-.82-1.95-1.42l1.12-1.73,1.22.11Z"/>
    <path class="cls-4" d="M183.08,348.07c-.19-.16-.75-.63-.93-.88-.25-.35.51-1.07.78-1.27l.95,1.46c.16.24-.48.5-.8.69Z"/>
    <g>
      <path class="cls-7" d="M401.14,214.11c-1.1,1.83-2.65,3.53-4.32,4.99-25.15-18.69-54.91-26.98-85.79-25.12-61.18,3.69-111.2,53.21-116.84,114.11-3.78,40.79,12.2,80.84,43.69,107.84,47.97,41.13,117.96,40.77,165.25-.78,43.11-37.88,54.32-95.81,32.68-148.1l5.22-4.02,2.97,6.07c26.36,53.87,5.93,118.69-41.79,156.14-48.75,38.25-117.05,38.13-165.6-1.07-27.87-22.51-45.62-54.59-49.74-90.01-1.11-9.51.64-13.52-1.86-22.16.62-.04,1.81,0,1.8-.55l-.02-1.63.16-3.99.14-2.76.07-2.97c.26-.83.68-2.2.85-3.03,2.83-14.35,8.04-27.71,14.04-40.98l1.78-2.95c39.33-65.11,121.68-87.31,187.85-46.14,3.15,1.96,6.43,4.53,9.46,7.12Z"/>
      <path class="cls-4" d="M403.07,213.2l-.12-4.25,2.01,1.74c.62.54-1.15,2.17-1.89,2.52Z"/>
      <path class="cls-24" d="M425.68,262.63l5.93,1.98,4.19,2.46c21.64,52.3,10.43,110.22-32.68,148.1-47.29,41.55-117.28,41.9-165.25.78-31.5-27-47.47-67.05-43.69-107.84l6.82,2.01c-1.87,18.83,1.55,38.95,9.67,55.99,2.67,5.61,11.2,3.5,15.16,3.61l2.92.08c.69.02,1.96-1.18,1.64-1.63,14.07,25.49,37.69,44.82,66.39,52.06,2.8.71,6.09-.37,6.6-2.52.68-2.87-.8-5.35-3.96-6.11-25.78-6.21-47.6-23-60.07-46.5,2.54-2.86,6.41-4,10.13-2.58,1.16,3.97,4.9,5.75,8.26,5.39,3.74,3.53,24.6,27.97,29.93,19.01.99-1.66.16-4.71-1.34-6.01l-3.39-2.93c-.15-3.55,1.62-6,4.62-8.48,1.88-.81,3.59-1.39,5.22-1.63,7.81,8.43,20.68,8.85,28.82.58l104.08-105.8ZM414.5,291.58c-1.36-.41-4.92,1.21-5.16,2.74-.52,3.23.32,7.27,2.45,10.11,1.12,1.48,5.4.71,6.22-.84,1.62-3.06.1-10.91-3.51-12.01ZM421.5,321.17c0-2.66-2.15-4.81-4.81-4.81s-4.81,2.15-4.81,4.81,2.15,4.81,4.81,4.81,4.81-2.15,4.81-4.81ZM321.7,399.34c42.03-1.4,75.22-35.75,75.6-77.34.03-3.17-2.09-5.31-4.68-5.36-1.66-.03-4.45,1.96-4.44,4.32.08,38.01-30.28,68.65-68.25,69.18-3.09.04-4.8,2.75-4.49,5.27.3,2.39,2.53,4.05,6.27,3.93ZM342.72,420.28c37.93-9.41,66.99-39.04,75.83-76.53.67-2.85-.9-5.47-3.11-5.92-1.66-.34-4.96,1.15-5.43,3.28-7.85,35.24-35.07,62.41-70.19,70.79-2.59.62-4,3.59-3.42,5.46s3.22,3.7,6.32,2.93ZM324.77,418.32c0-2.64-2.14-4.78-4.78-4.78s-4.78,2.14-4.78,4.78,2.14,4.78,4.78,4.78,4.78-2.14,4.78-4.78Z"/>
      <path class="cls-25" d="M311.02,193.99c2.19,3.18,7.48,3.51,11.53,3.68l-3.27,2.79c-62.03,1.45-112.16,47.92-118.28,109.65l-6.82-2.01c5.65-60.9,55.66-110.43,116.84-114.11Z"/>
      <path class="cls-15" d="M396.81,219.1c4.98,3.7,7.96.82,9.51,5.81-1.62,2.49-5.92,5.75-8.18,8.52-2.67.12-2.61-3.79-4.13-5.52-7.46-8.46-18-13.6-28.03-17.95s-19.82-6.56-30.07-8.16c.1-1.07.11-2.98-.35-3.86-.56-1.06-3.65-1.21-5.05-1.03-1.19.15-1.44,2.51-1.44,3.97-3.09-.21-6.74-.5-9.81-.43l3.27-2.79c-4.04-.18-9.33-.5-11.53-3.68,30.88-1.86,60.64,6.43,85.79,25.12Z"/>
      <path class="cls-20" d="M319.28,200.46c3.07-.07,6.72.22,9.81.43,2.13.15,4.69.58,6.84.92,10.25,1.61,20.52,4.02,30.07,8.16.22,2.67,1.55,4.3,4.13,6.1s.05,6.33.43,8.54l1.47,8.4c-4.83-1.4-34.38-17.95-35.46-7.56-.22,2.14,1.38,4.66,3.88,5.22,10.3,2.28,20.47,6.66,29.67,12.43l-1.96,6.7c.44,3.62.18,7.06-1.84,9.32-1.49-1.59-3.44-3.42-4.44-2.74l-3.98,2.71c1.54-8.87-20.73-12.21-25.04-13.26-8.22-2-15.79-1.04-23.97-.09-7.63.89-13.29,3.28-20.02,6.2-11.05,4.79-21.35,11.3-28.71,22.61-.87,1.33.28,5.18,1.75,5.87,1.86.87,4.47.29,6.03-1.54,6.81-8.02,14.84-15.05,24.14-19.61,4.96-2.43,12.6-4.42,18.04-5.37,5.79-1.01,14-.75,19.85-.02,8.34,1.04,16.08,5.84,24.08,8.11-.03,1.77.13,4.8.76,6.51s4.26,2.74,6.15,2.88l-49.13,51.31c-2.25,2.35-6.16,2.22-8.44-.05l-23.99-23.79c-7.95-7.89-19.55-6.07-26.42,1.45-6.33,6.91-8.34,17.35-.41,25.6,2.78,2.89,6.05,7.92,9.43,10.97-2.54,2.44-5.22,5.32-6.98,8.22-1.45-.01-5.69,1.19-5.82,2.81-.2,2.53.35,5.34.87,7.22l-1.78,1.49c-.46.39.52,2.53,1.06,2.27l2.3-1.14,6.09,10.18c-3.36.36-7.1-1.42-8.26-5.39-3.72-1.42-7.59-.28-10.13,2.58-4.36-6.98-7.01-14.74-9.05-23.29-.61-2.54-3.31-4.42-5.63-4.05-1.83.28-3.94,3.26-3.26,5.63,2.42,8.42,4.57,16.79,8.98,24.79.33.45-.95,1.65-1.64,1.63l-2.92-.08c-3.96-.11-12.49,2-15.16-3.61-8.13-17.04-11.54-37.16-9.67-55.99,6.11-61.73,56.25-108.2,118.28-109.65ZM324.88,224.06c0-2.67-2.17-4.84-4.84-4.84s-4.84,2.17-4.84,4.84,2.17,4.84,4.84,4.84,4.84-2.17,4.84-4.84ZM230.34,300.69c8.03-35.41,35.01-62.38,70.01-70.18,2.59-.58,3.78-3.74,3.2-5.63s-3.17-3.51-5.48-2.99c-38.3,8.69-67.92,38.68-76.45,77.04-.68,3.07,1.1,5.41,4.03,5.86,1.57.24,4.01-1.13,4.69-4.11ZM228.32,321.23c0-2.65-2.14-4.79-4.79-4.79s-4.79,2.14-4.79,4.79,2.14,4.79,4.79,4.79,4.79-2.14,4.79-4.79Z"/>
      <path class="cls-6" d="M321.7,399.34c-3.73.12-5.96-1.54-6.27-3.93-.32-2.53,1.4-5.23,4.49-5.27,37.97-.53,68.33-31.17,68.25-69.18,0-2.36,2.78-4.35,4.44-4.32,2.6.05,4.71,2.19,4.68,5.36-.38,41.58-33.57,75.93-75.6,77.34Z"/>
      <path class="cls-23" d="M342.72,420.28c-3.11.77-5.73-1-6.32-2.93s.83-4.85,3.42-5.46c35.12-8.38,62.33-35.55,70.19-70.79.47-2.13,3.77-3.62,5.43-3.28,2.21.45,3.78,3.08,3.11,5.92-8.84,37.5-37.9,67.13-75.83,76.53Z"/>
      <path class="cls-22" d="M239.35,365.09c12.47,23.5,34.29,40.29,60.07,46.5,3.17.76,4.64,3.24,3.96,6.11-.51,2.15-3.8,3.23-6.6,2.52-28.7-7.24-52.32-26.57-66.39-52.06-4.42-8-6.56-16.37-8.98-24.79-.68-2.36,1.43-5.34,3.26-5.63,2.33-.36,5.03,1.51,5.63,4.05,2.03,8.55,4.69,16.31,9.05,23.29Z"/>
      <path class="cls-2" d="M292.77,367.85c-1.63.24-3.34.83-5.22,1.63-3,2.47-4.77,4.93-4.62,8.48-10.29-5.44-18.27-15.25-23.7-26.06-1.32-2.63-2.71-4.84-4.21-6.84,1.76-2.9,4.44-5.78,6.98-8.22,10.61,9.56,20.61,20.03,30.77,31.01ZM279.28,358.5c1.23,1.17,2.06,2.05,2.18,1.63l.53-1.75c.13-.42-.86-.17-2.71.12Z"/>
      <path class="cls-3" d="M255.02,345.07c1.51,2,2.89,4.21,4.21,6.84,5.43,10.81,13.41,20.62,23.7,26.06l3.39,2.93c1.5,1.3,2.33,4.35,1.34,6.01-5.33,8.96-26.19-15.48-29.93-19.01l-6.09-10.18-1.58-2.61c-.52-1.88-1.07-4.68-.87-7.22.13-1.63,4.37-2.83,5.82-2.81Z"/>
      <path class="cls-22" d="M414.5,291.58c3.61,1.1,5.12,8.95,3.51,12.01-.82,1.55-5.1,2.32-6.22.84-2.13-2.84-2.97-6.88-2.45-10.11.24-1.53,3.8-3.15,5.16-2.74Z"/>
      <circle class="cls-21" cx="319.98" cy="418.32" r="4.78"/>
      <circle class="cls-21" cx="416.7" cy="321.17" r="4.81"/>
      <path class="cls-19" d="M398.15,233.44c-11,13.52-24.61,24.78-37.19,37.92-1.89-.14-5.52-1.19-6.15-2.88s-.79-4.74-.76-6.51l3.84-2.9,3.98-2.71c1-.68,2.95,1.15,4.44,2.74,2.03-2.25,2.29-5.7,1.84-9.32l1.96-6.7c1.2.02,3.49-.39,4.56-.94,1.25-.63,1.85-4.34.81-5.42l-3.46-3.73-1.47-8.4c-.39-2.21,2.04-6.82-.43-8.54s-3.91-3.43-4.13-6.1c10.03,4.35,20.57,9.49,28.03,17.95,1.52,1.73,1.46,5.64,4.13,5.52Z"/>
      <path class="cls-25" d="M335.93,201.81c-2.15-.34-4.71-.77-6.84-.92,0-1.46.25-3.81,1.44-3.97,1.4-.18,4.49-.03,5.05,1.03.46.88.45,2.79.35,3.86Z"/>
      <path class="cls-11" d="M230.34,300.69c-.68,2.98-3.11,4.35-4.69,4.11-2.93-.44-4.71-2.79-4.03-5.86,8.52-38.35,38.15-68.35,76.45-77.04,2.31-.52,4.93,1.19,5.48,2.99.58,1.88-.61,5.05-3.2,5.63-35,7.8-61.98,34.77-70.01,70.18Z"/>
      <path class="cls-11" d="M372.03,233l3.46,3.73c1.05,1.08.44,4.79-.81,5.42-1.07.54-3.36.96-4.56.94-9.2-5.77-19.37-10.15-29.67-12.43-2.5-.55-4.1-3.08-3.88-5.22,1.08-10.39,30.63,6.16,35.46,7.56Z"/>
      <path class="cls-1" d="M288.87,251.93c-.2,3.02-.1,6.83,3.21,7.33-9.3,4.56-17.32,11.59-24.14,19.61-1.56,1.83-4.17,2.41-6.03,1.54-1.47-.69-2.62-4.53-1.75-5.87,7.37-11.3,17.66-17.82,28.71-22.61Z"/>
      <path class="cls-13" d="M357.89,259.08l-3.84,2.9c-8-2.27-15.74-7.07-24.08-8.11,1.42-2.54,2.5-5.26,2.88-8.05,4.31,1.05,26.58,4.39,25.04,13.26Z"/>
      <path class="cls-9" d="M332.86,245.82c-.38,2.79-1.46,5.51-2.88,8.05-5.85-.73-14.06-.99-19.85.02l-1.23-8.16c8.17-.95,15.74-1.91,23.97.09Z"/>
      <path class="cls-26" d="M308.89,245.73l1.23,8.16c-5.44.95-13.08,2.93-18.04,5.37-3.31-.5-3.4-4.31-3.21-7.33,6.73-2.92,12.39-5.31,20.02-6.2Z"/>
      <circle class="cls-21" cx="320.05" cy="224.06" r="4.84"/>
      <circle class="cls-21" cx="223.53" cy="321.23" r="4.79"/>
      <path class="cls-24" d="M251.65,357.71l-2.3,1.14c-.54.27-1.52-1.88-1.06-2.27l1.78-1.49,1.58,2.61Z"/>
      <path class="cls-24" d="M279.28,358.5c1.84-.29,2.84-.54,2.71-.12l-.53,1.75c-.13.42-.95-.46-2.18-1.63Z"/>
      <g>
        <path class="cls-8" d="M439.94,217.88l.04,1.18-118.1,120.61c-7.99,8.16-19.33,9.16-27.59.83l-23.28-23.5c-5.98-6.04-11.58-12-18.04-16.72,6.88-7.51,18.47-9.33,26.42-1.45l23.99,23.79c2.29,2.27,6.2,2.4,8.44.05l49.13-51.31c12.58-13.14,26.19-24.4,37.19-37.92,2.26-2.77,6.55-6.03,8.18-8.52.93-1.44,4.58-3.51,5.79-4.94,7.1-8.38,19.42-8.75,27.82-2.1Z"/>
        <path class="cls-18" d="M425.68,262.63l-104.08,105.8c-8.14,8.27-21.02,7.85-28.82-.58-10.17-10.98-20.16-21.44-30.77-31.01-3.38-3.05-6.66-8.07-9.43-10.97-7.93-8.25-5.92-18.69.41-25.6,6.46,4.72,12.06,10.68,18.04,16.72l23.28,23.5c8.26,8.34,19.6,7.33,27.59-.83l118.1-120.61c8.56,6.98,7.41,21.25-1.26,28.63-5.18,4.4-8.75,10.58-13.04,14.94Z"/>
      </g>
    </g>
  </g>
</svg>