<?xml version="1.0" encoding="UTF-8"?>
<svg id="Layer_1" data-name="Layer 1" xmlns="http://www.w3.org/2000/svg" viewBox="0 0 160 160">
  <defs>
    <style>
      .cls-1 {
        fill: #632f84;
      }
    </style>
  </defs>
  <path class="cls-1" d="M44.35,31.97l1.39.97c.85.89,1.18,2.28,1.7,3.37.68,1.42,1.27,2.24,1.75,3.85.66,2.2,1.3,4.65,2.08,6.76.66,1.79,1.1,5.09.92,7.08-.06.63-.31,1.28-.32,1.93-.43.15-.32.42-.5.82-1.38,3.09-5.89,6.39-8.61,8.46-1.71,1.3-3.48,2.55-5.22,3.81-1.07.78-3.85,2.41-4.33,3.55-.32.76.86,1.51,1.39,1.85.91.57,1.96,1.04,2.9,1.57,1.58.9,3.16,1.91,4.79,2.69,2.09.99,3.82.7,6.03.88,4.91.41,8.94,1.4,12.88,4.44,1.11.85,2.1,2.26,3.62,2.21.64-.02,2.98-.59,3.64-.82.61-.21.64-.7.68-1.25.2-2.52.53-6.35-.25-8.72-.44-1.32-.7-.72-1.7-.9-.6-.11-.9-1.13-.94-1.66-.06-.73-.11-3.17.04-3.79.19-.81,1.26-.98,1.34-1.42.16-.87-.17-2.17-.16-3.09.03-4.2,2.14-8.8,5.41-11.42.43-.35.99-.58,1.37-.99.46-.49,1.45-.87,2.18-1.13.34-.12,1.03-.49,1.42-.53,2.18-.24,4.48-.1,6.46.79.1.04.22.25.42.33.45.18.82.29,1.25.5.06.03.16.25.25.29.13.05.41.04.48.11.05.05.03.2.14.31.2.21.78.56,1,.75,2.08,1.83,3.64,4.91,4.31,7.6.47,1.87.34,3.3.26,5.18-.02.45,0,.92.01,1.37.05.15.8.35.94.48.14.12.37.68.49.85.18.77.06,4-.15,4.76-.02.06-.11.05-.15.13-.03.06.01.17-.03.23-.52.77-1.24.42-2.01.55-.07.05-.41,1.23-.45,1.42-.1.42-.33,1.58-.36,2.08-.02.39.15,1.04.16,1.46.05,1.62.07,3.26.07,4.88.08.61,1.07.79,1.59.93.71.18,1.83.49,2.53.55.24.02.98-.05,1.18-.14.1-.04.67-.64.83-.78.3-.27.61-.53.88-.82.03-.03.59-.3.63-.36l-.08-.24c.38.18.3-.04.44-.14,2.17-1.4,4.2-2.7,6.78-3.34,1.83-.45,4.4-.8,6.32-.92,2.57-.16,4.03.16,6.38-1.26.13-.08.14-.24.18-.26.17-.1.68-.15,1.09-.42,1.1-.74,2.38-1.41,3.56-2.05.2-.11,1.13-.54,1.23-.63.08-.07.03-.21.06-.24.04-.03.28,0,.4-.05.24-.08,1-.59,1.18-.77,1.08-1.08-.27-1.83-1.04-2.44-2.52-2-5.3-3.88-7.91-5.85s-8.53-6.19-9.19-9.59c-.9-4.61.73-8.36,1.96-12.6.35-1.23.6-3.04,1.05-4.15.72-1.76,2.13-3.43,2.56-5.39.33-.31.59-.66.94-.95.12-.09,1.15-.8,1.22-.81.62-.12,1.23,0,1.61.51.42.55.3,1.28.52,1.91.74,2.19.99,3.29.84,5.67s-.58,4.86-.58,7.31c0,.59.3,1.17.78,1.51.1.07.85.38.98.4.59.08,1.71-.23,2.19-.57.29-.2.66-.47,1-.64,1.02-.54,2.27-1.04,3.45-.8.77.15,1.55,1.16,1.34,1.95-.01.05-.45.83-.49.86-.07.05-.25.02-.37.08-.26.13-.79.54-1.08.7-.86.5-2.1,1.07-2.72,1.87-.15.19-.44.82-.54.92-.5.5-1.34,1.01-1.97,1.41-.49.31-.84.49-1.29.87-.21.18-.5.09-.38.59,1.02.33,2.01.72,3.01,1.09,3.76,1.38,7.39,2.78,11.1,4.26,1.05.42,2.04.84,3.13,1.16.07.02.96.58,1.27.7,2.79,1.11,5.71,2.23,8.55,3.32,2.1.81,2.97,1.25,3.75,3.47.03.07.14.04.16.18.09.74-.16,1.22-.31,1.9-.07.3-.23,1.49-.36,1.71-.02.04-.19.06-.26.18-.07.11-.06.3-.13.44-1.45,2.68-3.12,5.35-5.3,7.58-5.25,5.35-11.64,9.54-18.36,12.73-1.26.6-2.52,1.02-3.8,1.48-.36.13-1.57.73-1.76.76-.13.02-.24-.07-.37-.05-.13.03-.29.25-.44.29-.22.06-.46,0-.69.04-.19.04-.4.22-.61.28-.61.17-1.24.23-1.84.36-.31.06-1.01.25-1.15.56-.1.21.05.35.04.53-.07,1.23-.35,1.93-.55,3.03-.1.56-.03.8-.26,1.3-.47,1.05-.72,2.36-1.23,3.45-1.54,3.29-3.48,6-4.24,9.6-.12.56-.5,1.5-.61,2.07-.12.62-.19,1.78-.37,2.32-.57,1.71-.82,3.75-1.18,5.57-.06.3-.05.69-.1,1-.34-.21-.49.33-.73.45l-50.93.05c-.97-.03-1.34-.92-1.48-1.77-.09-.54-.04-1.65-.19-2.09-.03-.09-.14-.13-.23-.13l.16-.08c.04-.2-.03-.13-.15-.2.04-.45.03-1.08,0-1.55-.17-1.87-.75-3.74-1.02-5.65-.55-3.86-3.51-7.44-4.79-11.22-.35-1.04-.81-2.16-1.01-3.22-.22-1.16-.3-2.36-.45-3.53-.41-.46-.97-.31-1.44-.43-.55-.13-1.12-.3-1.67-.44-1.71-.46-3.44-1.15-5.14-1.78-5.9-2.16-13.04-6.79-17.75-10.98-3.11-2.77-5.76-5.61-7.77-9.28-1.58-2.89-2.71-6.77,1.11-8.53.5-.23,1.17-.38,1.7-.57.8-.29,1.98-.62,2.8-1,2.36-1.11,4.72-1.95,7.2-2.98.89-.37,1.86-.82,2.79-1.2,2.84-1.15,5.68-2.1,8.46-3.24,1.58-.65,3.25-1.13,4.84-1.83.13-.06.28-.09.43-.1.02-.1-.01-.16-.04-.24-.3-.78-2.3-1.5-2.99-2.11-.31-.28-.73-.99-1.03-1.34-.87-1.03-2.53-1.88-3.71-2.63-.15-.1-.38-.1-.49-.2-.04-.03-.53-.75-.55-.79-.05-.12.09-1.12.14-1.2.04-.07,1.26-.73,1.4-.75.78-.11,1.72.11,2.45.41,1.01.42,2.42,1.62,3.51,1.69.87.05,2.27-.67,2.3-1.65.02-.46-.03-1.07-.03-1.56-.01-1.94-.26-3.78-.48-5.65s-.19-3.29.32-5.09c.09-.3.34-.52.41-.81.1-.38.3-1.81.47-2.05.03-.04.62-.55.66-.56.29-.09.92-.02,1.21.1Z"/>
</svg>